<svg width="200" height="53" viewBox="0 0 200 53" fill="none" xmlns="http://www.w3.org/2000/svg">
<path d="M187.971 7.52605C187.437 7.52605 187.027 7.27657 186.742 6.7776C186.457 6.27864 186.314 5.70839 186.314 5.06687C186.314 4.3897 186.457 3.80164 186.742 3.30267C187.027 2.76806 187.437 2.50076 187.971 2.50076C187.793 2.03744 187.847 1.62757 188.132 1.27117C188.417 0.879128 188.791 0.594006 189.254 0.415804C189.753 0.237603 190.234 0.201962 190.698 0.308881C191.161 0.380163 191.482 0.665287 191.66 1.16425C191.767 0.629647 192.141 0.291064 192.783 0.148502C193.46 -0.0296995 194.19 -0.0475205 194.975 0.095039C195.794 0.237601 196.471 0.504904 197.006 0.896949C197.576 1.28899 197.808 1.77014 197.701 2.34038C198.699 2.34038 199.358 2.5364 199.679 2.92845C200.036 3.28485 200.036 3.65907 199.679 4.05112C199.358 4.40752 198.699 4.58572 197.701 4.58572C198.556 4.58572 199.109 4.83521 199.358 5.33417C199.643 5.83314 199.643 6.3321 199.358 6.83106C199.109 7.29439 198.556 7.52605 197.701 7.52605C197.737 8.13194 197.416 8.59526 196.739 8.91602C196.062 9.23679 195.26 9.41499 194.333 9.45063C193.442 9.48627 192.64 9.37935 191.927 9.12986C191.215 8.84474 190.84 8.41706 190.805 7.84681C190.805 8.6309 190.573 9.14769 190.11 9.39717C189.682 9.64665 189.219 9.62883 188.72 9.34371C188.256 9.02294 188.007 8.41706 187.971 7.52605ZM180.54 49.0649C179.97 49.0292 179.542 48.7441 179.257 48.2095C178.972 47.7105 178.865 47.1225 178.936 46.4453C178.972 45.7681 179.15 45.1801 179.471 44.6811C179.792 44.2178 180.255 44.0039 180.861 44.0396C180.469 43.5763 180.415 43.0951 180.701 42.5961C180.95 42.1328 181.342 41.8121 181.877 41.6339C182.411 41.4556 182.875 41.5982 183.267 42.0615C183.017 41.5982 183.017 41.1527 183.267 40.725C183.481 40.2973 183.819 39.9409 184.282 39.6558C184.781 39.3351 185.28 39.1747 185.779 39.1747C185.387 38.6401 185.191 37.9985 185.191 37.2501C185.227 36.466 185.459 35.7888 185.886 35.2186C186.314 34.6483 186.92 34.381 187.704 34.4167C186.955 34.4167 186.385 34.2028 185.993 33.7752C185.601 33.3475 185.405 32.8663 185.405 32.3317C185.405 31.7615 185.601 31.2625 185.993 30.8348C186.385 30.4071 186.955 30.1933 187.704 30.1933C186.67 30.1933 185.975 29.926 185.619 29.3914C185.298 28.8568 185.298 28.3222 185.619 27.7876C185.975 27.253 186.67 26.9857 187.704 26.9857C186.849 26.9857 186.278 26.7718 185.993 26.3441C185.708 25.9165 185.708 25.4888 185.993 25.0611C186.278 24.6334 186.849 24.4196 187.704 24.4196C186.92 24.4196 186.385 24.2414 186.1 23.885C185.851 23.5286 185.851 23.1722 186.1 22.8158C186.385 22.4593 186.92 22.2811 187.704 22.2811C186.67 22.2811 185.975 21.996 185.619 21.4258C185.298 20.8555 185.298 20.3031 185.619 19.7685C185.975 19.1983 186.67 18.9131 187.704 18.9131C187.027 18.9131 186.51 18.6815 186.154 18.2182C185.797 17.7192 185.619 17.1668 185.619 16.5609C185.619 15.9193 185.797 15.3669 186.154 14.9036C186.51 14.4403 187.027 14.2086 187.704 14.2086C187.526 13.6027 187.65 13.1394 188.078 12.8186C188.506 12.4622 188.987 12.3375 189.522 12.4444C190.056 12.5157 190.413 12.8543 190.591 13.4602C190.591 13.0325 190.769 12.7117 191.125 12.4979C191.517 12.284 191.945 12.1771 192.408 12.1771C192.872 12.1771 193.282 12.284 193.638 12.4979C194.03 12.7117 194.226 13.0325 194.226 13.4602C194.333 12.8186 194.583 12.3731 194.975 12.1237C195.402 11.8742 195.866 11.7851 196.365 11.8564C196.864 11.9276 197.273 12.1415 197.594 12.4979C197.951 12.8543 198.075 13.3532 197.968 13.9948C198.539 13.9948 198.966 14.2621 199.251 14.7967C199.537 15.2956 199.679 15.8837 199.679 16.5609C199.679 17.238 199.537 17.8439 199.251 18.3785C198.966 18.8775 198.539 19.127 197.968 19.127C198.646 19.127 199.144 19.323 199.465 19.715C199.822 20.1071 200 20.5526 200 21.0516C200 21.5505 199.822 21.996 199.465 22.3881C199.144 22.7801 198.646 22.9761 197.968 22.9761C198.717 22.9761 199.216 23.1722 199.465 23.5642C199.715 23.9562 199.715 24.3483 199.465 24.7403C199.216 25.1324 198.717 25.3284 197.968 25.3284C198.574 25.3284 199.02 25.6848 199.305 26.3976C199.626 27.0748 199.786 27.8589 199.786 28.7499C199.786 29.6409 199.626 30.4428 199.305 31.1556C199.02 31.8328 198.574 32.1713 197.968 32.1713C198.539 32.1713 198.966 32.4743 199.251 33.0802C199.537 33.6861 199.679 34.381 199.679 35.1651C199.679 35.9492 199.537 36.6442 199.251 37.2501C198.966 37.856 198.539 38.1589 197.968 38.1589C198.717 38.3015 199.234 38.6757 199.519 39.2816C199.804 39.8875 199.875 40.529 199.733 41.2062C199.59 41.8833 199.269 42.4358 198.77 42.8634C198.271 43.3268 197.648 43.4871 196.899 43.3446C197.291 43.701 197.398 44.1465 197.22 44.6811C197.077 45.2513 196.774 45.7681 196.311 46.2315C195.848 46.7304 195.331 47.069 194.761 47.2472C194.226 47.461 193.763 47.3719 193.371 46.9799C193.513 47.5858 193.371 48.1204 192.943 48.5837C192.515 49.0827 191.945 49.4747 191.232 49.7598C190.52 50.045 189.771 50.2053 188.987 50.241C188.239 50.3123 187.561 50.2232 186.956 49.9737C186.385 49.7598 186.029 49.35 185.886 48.7441C185.886 49.35 185.637 49.8133 185.138 50.1341C184.639 50.4548 184.051 50.6152 183.374 50.6152C182.696 50.6509 182.091 50.5261 181.556 50.241C180.986 49.9915 180.647 49.5995 180.54 49.0649Z" fill="#06B8F1"/>
<path d="M150.879 38.9074C150.309 38.8717 149.881 38.6401 149.596 38.2124C149.311 37.7847 149.168 37.2858 149.168 36.7155C149.204 36.1453 149.364 35.6641 149.65 35.2721C149.97 34.8444 150.416 34.6305 150.986 34.6305C150.309 34.6305 149.792 34.3098 149.436 33.6683C149.079 32.9911 148.901 32.2248 148.901 31.3695C148.901 30.4784 149.079 29.7122 149.436 29.0707C149.792 28.3935 150.309 28.0549 150.986 28.0549C150.345 28.0549 149.863 27.7163 149.543 27.0392C149.258 26.3263 149.115 25.5244 149.115 24.6334C149.115 23.7424 149.258 22.9583 149.543 22.2812C149.863 21.5684 150.345 21.212 150.986 21.212C150.238 21.212 149.667 20.9981 149.275 20.5704C148.919 20.1428 148.741 19.6616 148.741 19.127C148.741 18.5568 148.919 18.0578 149.275 17.6301C149.667 17.2024 150.238 16.9886 150.986 16.9886C150.451 16.8817 150.077 16.6322 149.863 16.2401C149.65 15.8481 149.578 15.4204 149.65 14.9571C149.721 14.4938 149.917 14.1195 150.238 13.8344C150.558 13.5136 150.986 13.3889 151.521 13.4602C151.521 12.8543 151.788 12.3732 152.323 12.0168C152.857 11.6603 153.534 11.4287 154.354 11.3218C155.174 11.1792 155.976 11.1792 156.76 11.3218C157.58 11.4287 158.257 11.6603 158.791 12.0168C159.326 12.3732 159.593 12.8543 159.593 13.4602C160.021 12.9969 160.502 12.8543 161.037 13.0325C161.607 13.1751 162.07 13.4602 162.427 13.8879C162.783 13.3176 163.335 12.9969 164.084 12.9256C164.832 12.8187 165.438 13.1751 165.902 13.9948C165.795 13.3889 165.973 12.8899 166.436 12.4979C166.935 12.0702 167.541 11.7851 168.254 11.6425C168.967 11.5 169.626 11.5356 170.232 11.7494C170.838 11.9277 171.194 12.3197 171.301 12.9256C171.551 12.4979 171.96 12.2841 172.531 12.2841C173.137 12.2484 173.778 12.3732 174.455 12.6583C175.168 12.9434 175.827 13.2998 176.433 13.7275C177.039 14.1552 177.485 14.6185 177.77 15.1175C178.091 15.6164 178.126 16.0798 177.877 16.5074C178.661 16.151 179.284 16.1154 179.748 16.4005C180.211 16.6856 180.407 17.1133 180.336 17.6836C180.3 18.2182 179.89 18.6637 179.106 19.0201C179.748 18.9488 180.265 19.1626 180.657 19.6616C181.049 20.1606 181.28 20.7665 181.352 21.4793C181.459 22.1564 181.387 22.798 181.138 23.4038C180.888 23.9741 180.443 24.2948 179.801 24.3661C180.478 24.3661 180.977 24.7404 181.298 25.4888C181.655 26.2016 181.833 27.0392 181.833 28.0014C181.833 28.9637 181.655 29.8191 181.298 30.5675C180.977 31.2804 180.478 31.6368 179.801 31.6368C180.55 31.6368 181.031 31.8862 181.245 32.3852C181.494 32.8842 181.494 33.3831 181.245 33.8821C181.031 34.3811 180.55 34.6305 179.801 34.6305C180.443 34.7018 180.888 34.9691 181.138 35.4325C181.423 35.8601 181.53 36.3413 181.459 36.8759C181.387 37.3749 181.156 37.8025 180.764 38.1589C180.407 38.5153 179.908 38.6579 179.267 38.5866C179.267 39.1569 178.982 39.6024 178.411 39.9231C177.877 40.2083 177.235 40.3508 176.487 40.3508C175.774 40.3508 175.132 40.2083 174.562 39.9231C174.028 39.6024 173.76 39.1569 173.76 38.5866C173.76 39.2281 173.529 39.7093 173.065 40.0301C172.602 40.3865 172.05 40.5647 171.408 40.5647C170.802 40.6003 170.267 40.4577 169.804 40.137C169.341 39.8519 169.091 39.3707 169.056 38.6935C168.628 38.6935 168.307 38.3371 168.093 37.6243C167.915 36.9115 167.844 36.0918 167.88 35.1652C167.951 34.2385 168.111 33.4366 168.361 32.7594C168.61 32.0466 168.949 31.6902 169.376 31.6902C168.806 31.6902 168.361 31.4764 168.04 31.0487C167.719 30.5854 167.541 30.0508 167.505 29.4449C167.47 28.839 167.559 28.2687 167.773 27.7341C168.022 27.1995 168.396 26.861 168.895 26.7184C168.432 26.6828 167.987 26.4333 167.559 25.9699C167.131 25.471 166.739 24.8829 166.383 24.2057C166.062 23.4929 165.866 22.798 165.795 22.1208C165.367 22.4772 164.85 22.7267 164.244 22.8692C163.674 23.0118 163.157 23.0118 162.694 22.8692C162.872 23.2969 162.926 23.7781 162.854 24.3127C162.783 24.8473 162.623 25.3106 162.373 25.7026C162.124 26.0947 161.785 26.2729 161.357 26.2372C161.999 26.2372 162.409 26.4154 162.587 26.7719C162.801 27.0926 162.801 27.4312 162.587 27.7876C162.409 28.144 161.999 28.3222 161.357 28.3222C161.892 28.3222 162.302 28.6608 162.587 29.338C162.872 30.0151 163.015 30.7992 163.015 31.6902C163.015 32.5812 162.872 33.3831 162.587 34.0959C162.302 34.7731 161.892 35.1117 161.357 35.1117C161.892 35.4325 162.177 35.8601 162.213 36.3947C162.248 36.8937 162.124 37.3749 161.839 37.8382C161.553 38.3015 161.161 38.6401 160.662 38.8539C160.163 39.0321 159.647 38.943 159.112 38.5866C159.112 39.1212 158.845 39.5489 158.31 39.8697C157.776 40.1548 157.098 40.3508 156.279 40.4577C155.495 40.6003 154.693 40.6181 153.873 40.5112C153.053 40.4399 152.358 40.2617 151.788 39.9766C151.218 39.7271 150.915 39.3707 150.879 38.9074Z" fill="#06B8F1"/>
<path d="M100.814 31.6902C100.244 31.6902 99.8165 31.3338 99.5314 30.621C99.2819 29.8726 99.1572 29.0172 99.1572 28.0549C99.1572 27.0926 99.2819 26.2551 99.5314 25.5423C99.8165 24.7938 100.244 24.4196 100.814 24.4196C100.173 24.4196 99.674 24.0989 99.3176 23.4573C98.9968 22.8158 98.8364 22.0852 98.8364 21.2654C98.8364 20.4101 98.9968 19.6616 99.3176 19.0201C99.674 18.3786 100.173 18.0578 100.814 18.0578C100.387 17.8083 100.191 17.3985 100.226 16.8282C100.298 16.2223 100.494 15.6165 100.814 15.0106C101.171 14.4047 101.581 13.9414 102.044 13.6206C102.543 13.2642 103.006 13.2107 103.434 13.4602C103.434 12.783 103.63 12.2841 104.022 11.9633C104.45 11.6069 104.913 11.4287 105.412 11.4287C105.947 11.4287 106.41 11.6069 106.802 11.9633C107.23 12.2841 107.444 12.783 107.444 13.4602C107.444 12.5692 107.604 11.9811 107.925 11.696C108.281 11.4109 108.638 11.4109 108.994 11.696C109.35 11.9811 109.529 12.5692 109.529 13.4602C110.063 13.1038 110.526 13.0147 110.919 13.1929C111.346 13.3355 111.631 13.585 111.774 13.9414C112.344 13.4424 113.057 13.0325 113.912 12.7118C114.803 12.391 115.623 12.2306 116.371 12.2306C117.12 12.2306 117.601 12.4979 117.815 13.0325C117.957 12.5692 118.314 12.2841 118.884 12.1772C119.49 12.0702 120.167 12.0881 120.916 12.2306C121.664 12.3732 122.395 12.6048 123.107 12.9256C123.82 13.2464 124.373 13.6206 124.765 14.0483C125.192 14.476 125.335 14.9215 125.192 15.3848C125.905 15.0284 126.493 14.9036 126.957 15.0106C127.456 14.9036 127.901 15.064 128.293 15.4917C128.044 15.0284 128.008 14.6185 128.186 14.2621C128.364 13.9057 128.667 13.7275 129.095 13.7275C129.523 13.7275 129.968 13.977 130.432 14.476C130.253 13.977 130.325 13.5137 130.645 13.086C131.002 12.6583 131.465 12.3375 132.035 12.1237C132.641 11.9099 133.212 11.8564 133.746 11.9633C134.281 12.0702 134.637 12.391 134.815 12.9256C134.994 12.4623 135.421 12.2128 136.098 12.1772C136.776 12.1059 137.506 12.2128 138.29 12.4979C139.11 12.783 139.787 13.1573 140.322 13.6206C140.856 14.0483 141.035 14.4938 140.856 14.9571C141.462 14.7076 142.05 14.7967 142.621 15.2244C143.191 15.6521 143.654 16.258 144.011 17.0421C144.367 17.7905 144.527 18.5211 144.492 19.2339C144.456 19.9468 144.135 20.4457 143.529 20.7308C144.135 20.6952 144.634 20.9447 145.026 21.4793C145.418 21.9783 145.686 22.6198 145.828 23.4039C145.971 24.1523 145.989 24.9186 145.882 25.7027C145.775 26.4511 145.543 27.0926 145.187 27.6272C144.83 28.1619 144.349 28.4292 143.743 28.4292C144.777 28.4292 145.454 28.6786 145.775 29.1776C146.131 29.6766 146.131 30.1755 145.775 30.6745C145.454 31.1735 144.777 31.4229 143.743 31.4229C144.314 31.4229 144.741 31.6368 145.026 32.0645C145.311 32.4565 145.454 32.9198 145.454 33.4544C145.454 33.989 145.311 34.4702 145.026 34.8979C144.741 35.2899 144.314 35.4859 143.743 35.4859C144.527 35.7354 144.973 36.1631 145.08 36.769C145.187 37.3749 145.026 37.8917 144.599 38.3193C144.171 38.747 143.565 38.8361 142.781 38.5867C142.781 39.2995 142.514 39.8341 141.979 40.1905C141.444 40.5469 140.821 40.7251 140.108 40.7251C139.395 40.7251 138.771 40.5469 138.237 40.1905C137.702 39.8341 137.435 39.2995 137.435 38.5867C137.399 39.2995 137.096 39.7628 136.526 39.9766C135.991 40.2261 135.439 40.2083 134.869 39.9232C134.334 39.6737 134.085 39.1925 134.12 38.4797C133.55 38.4797 133.122 38.1946 132.837 37.6244C132.588 37.0185 132.463 36.3413 132.463 35.5929C132.463 34.8444 132.588 34.1851 132.837 33.6148C133.122 33.0089 133.55 32.706 134.12 32.706C133.586 32.706 133.176 32.3496 132.891 31.6368C132.606 30.8883 132.445 30.0151 132.41 29.0172C132.374 27.9836 132.463 27.0392 132.677 26.1838C132.891 25.2928 133.229 24.7404 133.693 24.5265C133.265 24.5622 132.855 24.384 132.463 23.9919C132.107 23.5642 131.839 23.0831 131.661 22.5485C131.233 23.0475 130.717 23.493 130.111 23.885C129.505 24.2771 128.953 24.5087 128.454 24.58C128.917 24.9364 129.042 25.3997 128.828 25.97C128.614 26.5046 128.079 26.7719 127.224 26.7719C127.759 26.7719 128.151 27.057 128.4 27.6272C128.65 28.1975 128.774 28.8747 128.774 29.6587C128.774 30.4072 128.65 31.0665 128.4 31.6368C128.151 32.207 127.759 32.4922 127.224 32.4922C127.794 32.4922 128.204 32.7773 128.454 33.3475C128.739 33.8821 128.881 34.5058 128.881 35.2186C128.881 35.8958 128.739 36.5017 128.454 37.0363C128.204 37.5709 127.794 37.8382 127.224 37.8382C127.331 38.5154 127.206 39.05 126.85 39.442C126.493 39.8341 126.03 40.0835 125.46 40.1905C124.925 40.2974 124.408 40.2083 123.909 39.9232C123.446 39.6737 123.161 39.2282 123.054 38.5867C123.054 39.3351 122.787 39.9053 122.252 40.2974C121.753 40.6894 121.165 40.8855 120.488 40.8855C119.811 40.8855 119.205 40.6894 118.67 40.2974C118.171 39.9053 117.922 39.3351 117.922 38.5867C116.746 38.9787 116.104 39.0143 115.997 38.6936C115.89 38.3728 116.425 38.0164 117.601 37.6244C116.853 37.6244 116.354 37.4283 116.104 37.0363C115.855 36.6442 115.855 36.2522 116.104 35.8602C116.354 35.4681 116.853 35.2721 117.601 35.2721C117.209 35.2721 116.888 35.0048 116.639 34.4702C116.425 33.9356 116.282 33.2584 116.211 32.4387C116.14 31.619 116.14 30.8171 116.211 30.033C116.282 29.2132 116.425 28.5361 116.639 28.0015C116.888 27.4669 117.209 27.1996 117.601 27.1996C117.031 27.1996 116.621 27.0392 116.371 26.7184C116.158 26.362 116.104 26.0056 116.211 25.6492C116.354 25.2572 116.657 25.0077 117.12 24.9008C116.728 24.8651 116.336 24.5978 115.944 24.0989C115.552 23.5642 115.267 22.994 115.088 22.3881C114.661 22.8871 114.108 23.3148 113.431 23.6712C112.754 23.9919 112.13 24.081 111.56 23.9385C111.845 24.4018 112.041 25.0433 112.148 25.863C112.255 26.6471 112.273 27.449 112.202 28.2688C112.13 29.0885 111.952 29.8013 111.667 30.4072C111.417 30.9774 111.079 31.2447 110.651 31.2091C111.293 31.2091 111.703 31.4764 111.881 32.011C112.095 32.5456 112.095 33.0802 111.881 33.6148C111.703 34.1494 111.293 34.4167 110.651 34.4167C111.186 34.5949 111.524 34.9335 111.667 35.4325C111.81 35.8958 111.81 36.4126 111.667 36.9828C111.524 37.5174 111.257 37.9629 110.865 38.3193C110.473 38.6401 110.01 38.7292 109.475 38.5867C109.475 39.3351 109.261 39.8875 108.834 40.2439C108.406 40.6003 107.907 40.7785 107.337 40.7785C106.766 40.7785 106.267 40.6003 105.84 40.2439C105.412 39.8875 105.198 39.3351 105.198 38.5867C105.198 39.1925 104.984 39.6202 104.557 39.8697C104.129 40.0835 103.63 39.9944 103.06 39.6024C102.49 39.1747 101.973 38.3372 101.509 37.0898C101.082 35.8067 100.85 34.0069 100.814 31.6902Z" fill="#06B8F1"/>
<path d="M76.917 50.241C76.7744 50.9538 76.4537 51.4527 75.9547 51.7379C75.4914 52.023 74.9924 52.1121 74.4578 52.0052C73.9589 51.8983 73.5312 51.6131 73.1748 51.1498C72.854 50.7221 72.7649 50.1519 72.9075 49.4391C72.658 49.938 72.2303 50.1875 71.6244 50.1875C71.0542 50.2232 70.4661 50.0806 69.8602 49.7598C69.2543 49.4747 68.7732 49.0827 68.4168 48.5837C68.096 48.1204 68.0604 47.6392 68.3099 47.1403C67.8465 47.5323 67.3654 47.6749 66.8664 47.5679C66.3675 47.461 65.9398 47.1937 65.5834 46.766C65.227 46.374 65.0309 45.9107 64.9953 45.3761C64.9953 44.8771 65.227 44.4316 65.6903 44.0396C65.227 43.4693 65.1379 42.9169 65.423 42.3823C65.7081 41.8477 66.1358 41.5091 66.706 41.3665C67.3119 41.224 67.8465 41.4378 68.3099 42.0081C68.3099 41.3665 68.5059 40.8854 68.8979 40.5646C69.3256 40.2795 69.7889 40.1369 70.2879 40.1369C70.8225 40.1369 71.2858 40.2795 71.6779 40.5646C72.1056 40.8854 72.3194 41.3665 72.3194 42.0081C72.5332 41.5447 72.9966 41.3309 73.7094 41.3665C74.4578 41.4378 75.2063 41.6517 75.9547 42.0081C76.7032 42.4001 77.2021 42.8278 77.4516 43.2911C77.5942 42.8634 77.9149 42.3823 78.4139 41.8477C78.9129 41.3131 79.4653 40.8319 80.0712 40.4042C80.6771 39.9766 81.2473 39.6914 81.7819 39.5489C81.4255 39.3707 81.1582 39.0855 80.98 38.6935C80.8018 38.2658 80.7305 37.8738 80.7662 37.5174C80.2672 37.6956 79.7504 37.749 79.2158 37.6778C78.6812 37.5708 78.3604 37.2679 78.2535 36.7689C78.2892 37.2322 78.004 37.6065 77.3981 37.8916C76.7923 38.1411 76.0795 38.3015 75.2597 38.3727C74.4756 38.4084 73.7628 38.3371 73.1213 38.1589C72.5154 37.9807 72.1947 37.6599 72.159 37.1966C71.9452 37.6956 71.5709 37.9807 71.0363 38.052C70.5017 38.1233 69.9493 38.052 69.3791 37.8381C68.8088 37.5887 68.3455 37.2501 67.9891 36.8224C67.6683 36.3947 67.5971 35.9314 67.7753 35.4324C67.3832 35.6106 66.9555 35.5037 66.4922 35.1116C66.0645 34.7196 65.6368 34.185 65.2092 33.5078C64.8171 32.795 64.4963 32.0644 64.2469 31.316C64.033 30.5319 63.9261 29.8369 63.9261 29.231C63.9617 28.6251 64.1756 28.2331 64.5676 28.0549C64.1043 28.0192 63.7301 27.7341 63.445 27.1995C63.1955 26.6292 63.0529 25.9521 63.0173 25.168C62.9816 24.3483 63.0173 23.5464 63.1242 22.7623C63.2668 21.9425 63.4984 21.2654 63.8192 20.7308C64.1399 20.1962 64.5498 19.9467 65.0488 19.9823C64.5498 19.6616 64.3538 19.1448 64.4607 18.432C64.5676 17.7192 64.8527 17.0064 65.3161 16.2936C65.7794 15.5807 66.314 15.0283 66.9199 14.6363C67.5258 14.2442 68.0782 14.2086 68.5772 14.5294C68.4702 14.0304 68.6663 13.6027 69.1652 13.2463C69.6642 12.8543 70.3057 12.5513 71.0898 12.3375C71.9095 12.1236 72.7293 11.9989 73.549 11.9633C74.3687 11.892 75.0637 11.9633 75.6339 12.1771C76.2398 12.3553 76.5784 12.6939 76.6497 13.1928C76.9348 12.5513 77.309 12.1771 77.7724 12.0702C78.2357 11.9633 78.6634 12.0345 79.0554 12.284C79.4831 12.5335 79.7148 12.9255 79.7504 13.4601C80.0712 12.9968 80.5523 12.6582 81.1938 12.4444C81.871 12.2306 82.5125 12.2127 83.1184 12.3909C83.7243 12.5335 84.0985 12.8899 84.2411 13.4601C84.2411 12.5335 84.4371 11.9276 84.8292 11.6425C85.2212 11.3217 85.6132 11.3217 86.0053 11.6425C86.3973 11.9276 86.5934 12.5335 86.5934 13.4601C86.629 12.8899 86.9854 12.4979 87.6626 12.284C88.3754 12.0702 89.1773 11.9989 90.0683 12.0702C90.9593 12.1415 91.7256 12.3375 92.3671 12.6582C93.0086 12.979 93.3116 13.4245 93.2759 13.9948C93.8818 13.9948 94.3273 14.369 94.6124 15.1174C94.9332 15.8302 95.0936 16.6678 95.0936 17.6301C95.0936 18.5567 94.9332 19.3943 94.6124 20.1427C94.3273 20.8555 93.8818 21.2119 93.2759 21.2119C93.8105 21.2119 94.2026 21.4436 94.452 21.9069C94.7372 22.3346 94.8797 22.8514 94.8797 23.4573C94.8797 24.0275 94.7372 24.5443 94.452 25.0076C94.2026 25.4353 93.8105 25.6491 93.2759 25.6491C93.9174 25.6491 94.3986 26.0055 94.7193 26.7184C95.0757 27.4312 95.2539 28.2509 95.2539 29.1775C95.2539 30.0685 95.0936 30.8704 94.7728 31.5833C94.452 32.2961 93.9709 32.6525 93.3294 32.6525C93.9353 32.6525 94.3808 32.9376 94.6659 33.5078C94.9866 34.0424 95.147 34.684 95.147 35.4324C95.147 36.1452 94.9866 36.7867 94.6659 37.357C94.3808 37.8916 93.9353 38.1589 93.3294 38.1589C93.8996 38.3015 94.2382 38.7648 94.3451 39.5489C94.4877 40.2973 94.452 41.117 94.2382 42.0081C94.06 42.9347 93.7392 43.7188 93.2759 44.3603C92.8482 45.0018 92.3493 45.2513 91.779 45.1088C92.3849 45.6077 92.6522 46.1067 92.5809 46.6057C92.5096 47.1046 92.2245 47.4254 91.7256 47.5679C91.2622 47.7461 90.7276 47.5858 90.1217 47.0868C90.5851 47.764 90.6563 48.352 90.3356 48.851C90.0505 49.3856 89.605 49.6885 88.9991 49.7598C88.4288 49.8311 87.912 49.5282 87.4487 48.851C87.5913 49.4925 87.2705 50.0449 86.4864 50.5083C85.738 51.0072 84.7579 51.3458 83.5461 51.524C82.3343 51.7379 81.1226 51.7379 79.9108 51.524C78.699 51.3458 77.7011 50.9181 76.917 50.241ZM82.958 25.9164C82.4234 25.9164 82.1027 25.667 81.9958 25.168C81.9245 24.6334 82.0848 24.2592 82.4769 24.0453C81.9779 24.0453 81.479 23.7246 80.98 23.083C80.481 22.4059 80.2137 21.7465 80.1781 21.105C79.7148 21.497 79.0554 21.8178 78.2 22.0673C77.3803 22.2811 76.7032 22.3168 76.1686 22.1742C76.418 22.6375 76.4359 23.2434 76.222 23.9919C76.0438 24.7047 75.723 25.1324 75.2597 25.2749C75.6161 25.3106 75.9369 25.5422 76.222 25.9699C76.5428 26.3976 76.7744 26.8966 76.917 27.4668C77.0952 28.037 77.1487 28.5538 77.0774 29.0172C77.5407 28.6964 78.0753 28.6607 78.6812 28.9102C79.3227 29.1241 79.8395 29.5518 80.2316 30.1933C80.089 29.7656 80.2137 29.3379 80.6058 28.9102C81.0335 28.4469 81.4611 28.2152 81.8888 28.2152C81.5681 28.0014 81.4077 27.6985 81.4077 27.3064C81.4077 26.8787 81.5324 26.5223 81.7819 26.2372C82.067 25.9521 82.4591 25.8452 82.958 25.9164Z" fill="#06B8F1"/>
<path d="M29.0789 38.9074C28.5086 38.8717 28.0809 38.6401 27.7958 38.2124C27.5107 37.7847 27.3681 37.2858 27.3681 36.7155C27.4038 36.1453 27.5641 35.6641 27.8493 35.2721C28.17 34.8444 28.6155 34.6305 29.1858 34.6305C28.5086 34.6305 27.9918 34.3098 27.6354 33.6683C27.279 32.9911 27.1008 32.2248 27.1008 31.3695C27.1008 30.4784 27.279 29.7122 27.6354 29.0707C27.9918 28.3935 28.5086 28.0549 29.1858 28.0549C28.5442 28.0549 28.0631 27.7163 27.7423 27.0392C27.4572 26.3263 27.3147 25.5244 27.3147 24.6334C27.3147 23.7424 27.4572 22.9583 27.7423 22.2812C28.0631 21.5684 28.5442 21.212 29.1858 21.212C28.4373 21.212 27.8671 20.9981 27.475 20.5704C27.1186 20.1428 26.9404 19.6616 26.9404 19.127C26.9404 18.5568 27.1186 18.0578 27.475 17.6301C27.8671 17.2024 28.4373 16.9886 29.1858 16.9886C28.6512 16.8817 28.2769 16.6322 28.0631 16.2401C27.8493 15.8481 27.778 15.4204 27.8493 14.9571C27.9205 14.4938 28.1166 14.1195 28.4373 13.8344C28.7581 13.5136 29.1858 13.3889 29.7204 13.4602C29.7204 12.8543 29.9877 12.3732 30.5223 12.0168C31.0569 11.6603 31.7341 11.4287 32.5538 11.3218C33.3735 11.1792 34.1754 11.1792 34.9595 11.3218C35.7792 11.4287 36.4564 11.6603 36.991 12.0168C37.5256 12.3732 37.7929 12.8543 37.7929 13.4602C38.2206 12.9969 38.7017 12.8543 39.2363 13.0325C39.8066 13.1751 40.2699 13.4602 40.6263 13.8879C40.9827 13.3176 41.5351 12.9969 42.2836 12.9256C43.032 12.8187 43.6379 13.1751 44.1012 13.9948C43.9943 13.3889 44.1725 12.8899 44.6359 12.4979C45.1348 12.0702 45.7407 11.7851 46.4535 11.6425C47.1663 11.5 47.8257 11.5356 48.4316 11.7494C49.0374 11.9277 49.3938 12.3197 49.5008 12.9256C49.7502 12.4979 50.1601 12.2841 50.7304 12.2841C51.3362 12.2484 51.9778 12.3732 52.6549 12.6583C53.3677 12.9434 54.0271 13.2998 54.633 13.7275C55.2389 14.1552 55.6844 14.6185 55.9695 15.1175C56.2902 15.6164 56.3259 16.0798 56.0764 16.5074C56.8605 16.151 57.4842 16.1154 57.9475 16.4005C58.4108 16.6856 58.6069 17.1133 58.5356 17.6836C58.4999 18.2182 58.0901 18.6637 57.306 19.0201C57.9475 18.9488 58.4643 19.1626 58.8563 19.6616C59.2484 20.1606 59.4801 20.7665 59.5513 21.4793C59.6583 22.1564 59.587 22.798 59.3375 23.4038C59.088 23.9741 58.6425 24.2948 58.001 24.3661C58.6781 24.3661 59.1771 24.7404 59.4979 25.4888C59.8543 26.2016 60.0325 27.0392 60.0325 28.0014C60.0325 28.9637 59.8543 29.8191 59.4979 30.5675C59.1771 31.2804 58.6781 31.6368 58.001 31.6368C58.7494 31.6368 59.2306 31.8862 59.4444 32.3852C59.6939 32.8842 59.6939 33.3831 59.4444 33.8821C59.2306 34.3811 58.7494 34.6305 58.001 34.6305C58.6425 34.7018 59.088 34.9691 59.3375 35.4325C59.6226 35.8601 59.7295 36.3413 59.6583 36.8759C59.587 37.3749 59.3553 37.8025 58.9633 38.1589C58.6069 38.5153 58.1079 38.6579 57.4664 38.5866C57.4664 39.1569 57.1813 39.6024 56.611 39.9231C56.0764 40.2083 55.4349 40.3508 54.6864 40.3508C53.9736 40.3508 53.3321 40.2083 52.7619 39.9231C52.2272 39.6024 51.9599 39.1569 51.9599 38.5866C51.9599 39.2281 51.7283 39.7093 51.265 40.0301C50.8016 40.3865 50.2492 40.5647 49.6077 40.5647C49.0018 40.6003 48.4672 40.4577 48.0039 40.137C47.5405 39.8519 47.2911 39.3707 47.2554 38.6935C46.8277 38.6935 46.507 38.3371 46.2931 37.6243C46.1149 36.9115 46.0437 36.0918 46.0793 35.1652C46.1506 34.2385 46.3109 33.4366 46.5604 32.7594C46.8099 32.0466 47.1485 31.6902 47.5762 31.6902C47.0059 31.6902 46.5604 31.4764 46.2397 31.0487C45.9189 30.5854 45.7407 30.0508 45.7051 29.4449C45.6694 28.839 45.7585 28.2687 45.9724 27.7341C46.2219 27.1995 46.5961 26.861 47.095 26.7184C46.6317 26.6828 46.1862 26.4333 45.7585 25.9699C45.3308 25.471 44.9388 24.8829 44.5824 24.2057C44.2616 23.4929 44.0656 22.798 43.9943 22.1208C43.5666 22.4772 43.0499 22.7267 42.444 22.8692C41.8737 23.0118 41.3569 23.0118 40.8936 22.8692C41.0718 23.2969 41.1253 23.7781 41.054 24.3127C40.9827 24.8473 40.8223 25.3106 40.5729 25.7026C40.3234 26.0947 39.9848 26.2729 39.5571 26.2372C40.1986 26.2372 40.6085 26.4154 40.7867 26.7719C41.0005 27.0926 41.0005 27.4312 40.7867 27.7876C40.6085 28.144 40.1986 28.3222 39.5571 28.3222C40.0917 28.3222 40.5016 28.6608 40.7867 29.338C41.0718 30.0151 41.2144 30.7992 41.2144 31.6902C41.2144 32.5812 41.0718 33.3831 40.7867 34.0959C40.5016 34.7731 40.0917 35.1117 39.5571 35.1117C40.0917 35.4325 40.3768 35.8601 40.4125 36.3947C40.4481 36.8937 40.3234 37.3749 40.0383 37.8382C39.7531 38.3015 39.3611 38.6401 38.8621 38.8539C38.3632 39.0321 37.8464 38.943 37.3118 38.5866C37.3118 39.1212 37.0445 39.5489 36.5099 39.8697C35.9753 40.1548 35.2981 40.3508 34.4784 40.4577C33.6943 40.6003 32.8924 40.6181 32.0726 40.5112C31.2529 40.4399 30.5579 40.2617 29.9877 39.9766C29.4174 39.7271 29.1145 39.3707 29.0789 38.9074Z" fill="#06B8F1"/>
<path d="M9.05621 7.52605C8.5216 7.52605 8.11174 7.27657 7.82662 6.7776C7.5415 6.27864 7.39893 5.70839 7.39893 5.06687C7.39893 4.3897 7.5415 3.80164 7.82662 3.30267C8.11174 2.76806 8.5216 2.50076 9.05621 2.50076C8.87801 2.03744 8.93147 1.62757 9.21659 1.27117C9.50171 0.879128 9.87594 0.594006 10.3393 0.415804C10.8382 0.237603 11.3194 0.201962 11.7827 0.308881C12.246 0.380163 12.5668 0.665287 12.745 1.16425C12.8519 0.629647 13.2261 0.291064 13.8677 0.148502C14.5448 -0.0296995 15.2754 -0.0475205 16.0595 0.095039C16.8793 0.237601 17.5564 0.504904 18.091 0.896949C18.6613 1.28899 18.8929 1.77014 18.786 2.34038C19.784 2.34038 20.4433 2.5364 20.7641 2.92845C21.1205 3.28485 21.1205 3.65907 20.7641 4.05112C20.4433 4.40752 19.784 4.58572 18.786 4.58572C19.6414 4.58572 20.1938 4.83521 20.4433 5.33417C20.7284 5.83314 20.7284 6.3321 20.4433 6.83106C20.1938 7.29439 19.6414 7.52605 18.786 7.52605C18.8217 8.13194 18.5009 8.59526 17.8237 8.91602C17.1466 9.23679 16.3447 9.41499 15.418 9.45063C14.527 9.48627 13.7251 9.37935 13.0123 9.12986C12.2995 8.84474 11.9253 8.41706 11.8896 7.84681C11.8896 8.6309 11.658 9.14769 11.1946 9.39717C10.7669 9.64665 10.3036 9.62883 9.80466 9.34371C9.34133 9.02294 9.09185 8.41706 9.05621 7.52605ZM1.6252 49.0649C1.05495 49.0292 0.62727 48.7441 0.342147 48.2095C0.0570244 47.7105 -0.0498965 47.1225 0.0213843 46.4453C0.0570244 45.7681 0.235226 45.1801 0.555989 44.6811C0.876752 44.2178 1.34008 44.0039 1.94596 44.0396C1.55392 43.5763 1.50046 43.0951 1.78558 42.5961C2.03506 42.1328 2.42711 41.8121 2.96171 41.6339C3.49632 41.4556 3.95964 41.5982 4.35168 42.0615C4.1022 41.5982 4.1022 41.1527 4.35168 40.725C4.56553 40.2973 4.90411 39.9409 5.36743 39.6558C5.8664 39.3351 6.36536 39.1747 6.86433 39.1747C6.47228 38.6401 6.27626 37.9985 6.27626 37.2501C6.3119 36.466 6.54357 35.7888 6.97125 35.2186C7.39893 34.6483 8.00482 34.381 8.78891 34.4167C8.04046 34.4167 7.47021 34.2028 7.07817 33.7752C6.68613 33.3475 6.49011 32.8663 6.49011 32.3317C6.49011 31.7615 6.68613 31.2625 7.07817 30.8348C7.47021 30.4071 8.04046 30.1933 8.78891 30.1933C7.75534 30.1933 7.06035 29.926 6.70395 29.3914C6.38318 28.8568 6.38318 28.3222 6.70395 27.7876C7.06035 27.253 7.75534 26.9857 8.78891 26.9857C7.93354 26.9857 7.36329 26.7718 7.07817 26.3441C6.79305 25.9165 6.79305 25.4888 7.07817 25.0611C7.36329 24.6334 7.93354 24.4196 8.78891 24.4196C8.00482 24.4196 7.47021 24.2414 7.18509 23.885C6.93561 23.5286 6.93561 23.1722 7.18509 22.8158C7.47021 22.4593 8.00482 22.2811 8.78891 22.2811C7.75534 22.2811 7.06035 21.996 6.70395 21.4258C6.38318 20.8555 6.38318 20.3031 6.70395 19.7685C7.06035 19.1983 7.75534 18.9131 8.78891 18.9131C8.11174 18.9131 7.59496 18.6815 7.23855 18.2182C6.88215 17.7192 6.70395 17.1668 6.70395 16.5609C6.70395 15.9193 6.88215 15.3669 7.23855 14.9036C7.59496 14.4403 8.11174 14.2086 8.78891 14.2086C8.61071 13.6027 8.73545 13.1394 9.16313 12.8186C9.59081 12.4622 10.072 12.3375 10.6066 12.4444C11.1412 12.5157 11.4976 12.8543 11.6758 13.4602C11.6758 13.0325 11.854 12.7117 12.2104 12.4979C12.6024 12.284 13.0301 12.1771 13.4934 12.1771C13.9568 12.1771 14.3666 12.284 14.723 12.4979C15.1151 12.7117 15.3111 13.0325 15.3111 13.4602C15.418 12.8186 15.6675 12.3731 16.0595 12.1237C16.4872 11.8742 16.9505 11.7851 17.4495 11.8564C17.9485 11.9276 18.3583 12.1415 18.6791 12.4979C19.0355 12.8543 19.1602 13.3532 19.0533 13.9948C19.6236 13.9948 20.0513 14.2621 20.3364 14.7967C20.6215 15.2956 20.7641 15.8837 20.7641 16.5609C20.7641 17.238 20.6215 17.8439 20.3364 18.3785C20.0513 18.8775 19.6236 19.127 19.0533 19.127C19.7305 19.127 20.2295 19.323 20.5502 19.715C20.9066 20.1071 21.0848 20.5526 21.0848 21.0516C21.0848 21.5505 20.9066 21.996 20.5502 22.3881C20.2295 22.7801 19.7305 22.9761 19.0533 22.9761C19.8018 22.9761 20.3007 23.1722 20.5502 23.5642C20.7997 23.9562 20.7997 24.3483 20.5502 24.7403C20.3007 25.1324 19.8018 25.3284 19.0533 25.3284C19.6592 25.3284 20.1047 25.6848 20.3898 26.3976C20.7106 27.0748 20.871 27.8589 20.871 28.7499C20.871 29.6409 20.7106 30.4428 20.3898 31.1556C20.1047 31.8328 19.6592 32.1713 19.0533 32.1713C19.6236 32.1713 20.0513 32.4743 20.3364 33.0802C20.6215 33.6861 20.7641 34.381 20.7641 35.1651C20.7641 35.9492 20.6215 36.6442 20.3364 37.2501C20.0513 37.856 19.6236 38.1589 19.0533 38.1589C19.8018 38.3015 20.3186 38.6757 20.6037 39.2816C20.8888 39.8875 20.9601 40.529 20.8175 41.2062C20.675 41.8833 20.3542 42.4358 19.8552 42.8634C19.3563 43.3268 18.7326 43.4871 17.9841 43.3446C18.3762 43.701 18.4831 44.1465 18.3049 44.6811C18.1623 45.2513 17.8594 45.7681 17.396 46.2315C16.9327 46.7304 16.4159 47.069 15.8457 47.2472C15.3111 47.461 14.8478 47.3719 14.4557 46.9799C14.5983 47.5858 14.4557 48.1204 14.028 48.5837C13.6004 49.0827 13.0301 49.4747 12.3173 49.7598C11.6045 50.045 10.856 50.2053 10.072 50.241C9.32351 50.3123 8.64635 50.2232 8.04046 49.9737C7.47021 49.7598 7.11381 49.35 6.97125 48.7441C6.97125 49.35 6.72177 49.8133 6.2228 50.1341C5.72384 50.4548 5.13577 50.6152 4.45861 50.6152C3.78144 50.6509 3.17555 50.5261 2.64095 50.241C2.0707 49.9915 1.73212 49.5995 1.6252 49.0649Z" fill="#06B8F1"/>
</svg>
